<?xml version="1.0" encoding="iso-8859-1"?>
<!-- Uploaded to: SVG Repo, www.svgrepo.com, Generator: SVG Repo Mixer Tools -->
<svg version="1.1" id="Layer_1" xmlns="http://www.w3.org/2000/svg" xmlns:xlink="http://www.w3.org/1999/xlink" 
	 viewBox="0 0 512 512" xml:space="preserve">
<path style="fill:#4BCDB2;" d="M497.599,211.73v176.63c0,62.486-51.123,113.609-113.622,113.609l-5.241-0.428
	c-81.684-6.725-163.783-6.725-245.48,0l-5.241,0.428c-62.486,0-113.609-51.123-113.609-113.609V211.73
	c0,83.97,68.703,152.673,152.673,152.673h88.917h88.917C428.896,364.403,497.599,295.7,497.599,211.73z"/>
<path style="fill:#57EECF;" d="M255.993,364.402h-88.917c-83.97,0-152.673-68.703-152.673-152.673v-46.23
	c0-85.508,69.96-155.467,155.467-155.467h172.245c85.521,0,155.48,69.96,155.48,155.467v46.23
	c0,83.97-68.703,152.673-152.686,152.673H255.993z M255.993,199.47c-8.797,0.067-17.7,1.885-26.257,5.642
	c-33.757,14.813-49.104,54.184-34.291,87.927c10.909,24.813,35.08,39.692,60.548,39.906c9.144,0.094,18.462-1.711,27.393-5.628
	c33.743-14.813,49.091-54.184,34.278-87.927C306.608,214.189,281.862,199.242,255.993,199.47z M290.739,81.943
	c0-15.388-15.722-27.861-35.12-27.861s-35.12,12.473-35.12,27.861c0,15.401,15.722,27.874,35.12,27.874
	C275.017,109.818,290.739,97.344,290.739,81.943z"/>
<path style="fill:#1F544A;" d="M255.622,54.084c19.398,0,35.12,12.473,35.12,27.861c0,15.401-15.722,27.874-35.12,27.874
	s-35.12-12.473-35.12-27.874C220.502,66.557,236.223,54.084,255.622,54.084z"/>
<path style="fill:none;stroke:#57EECF;stroke-width:15;stroke-linecap:round;stroke-linejoin:round;stroke-miterlimit:10;" d="
	M128.015,451.381l5.241-0.428c81.697-6.725,163.796-6.725,245.48,0l5.241,0.428"/>
<path style="fill:#60FEE6;" d="M429.029,141.042c-1.648-5.286-7.274-8.234-12.559-6.584
	c-44.305,13.827-101.298,21.457-160.475,21.482h-0.374c-64.01,0-124.42-8.711-170.101-24.529
	c-5.235-1.813-10.945,0.961-12.755,6.194c-1.811,5.233,0.961,10.944,6.194,12.755c45.409,15.723,104.396,24.72,167.01,25.561v23.547
	h20.053v-23.561c57.56-0.841,112.768-8.683,156.422-22.309C427.732,151.951,430.68,146.328,429.029,141.042z"/>
<line style="fill:none;stroke:#60FEE6;stroke-width:15;stroke-linejoin:round;stroke-miterlimit:10;" x1="256" y1="364.4" x2="256" y2="332.94"/>
<path style="fill:#1F544A;" d="M317.105,239.382c-11.056-25.187-35.802-40.133-61.671-39.906c-8.783,0.053-17.7,1.872-26.257,5.628
	c-33.757,14.813-49.104,54.184-34.291,87.927c10.909,24.839,35.08,39.706,60.548,39.92c9.158,0.094,18.462-1.725,27.393-5.642
	C316.571,312.497,331.918,273.126,317.105,239.382z"/>
<path style="fill:#FFDA44;" d="M288.282,261.949c2.861-2.821,1.27-7.634-2.714-8.262l-14.746-2.313
	c-1.564-0.241-2.914-1.203-3.623-2.594l-6.791-13.088c-1.016-1.965-3.048-2.834-4.973-2.62c-1.537,0.16-3.008,1.029-3.837,2.62
	l-6.791,13.088c-0.722,1.39-2.072,2.353-3.636,2.594l-14.733,2.313c-3.997,0.628-5.575,5.441-2.727,8.262l10.548,10.401
	c1.11,1.096,1.631,2.66,1.39,4.198l-2.326,14.519c-0.628,3.93,3.529,6.912,7.126,5.107l13.302-6.671
	c0.535-0.267,1.11-0.428,1.684-0.495c0.963-0.107,1.938,0.067,2.807,0.495l13.302,6.671c3.61,1.805,7.767-1.176,7.139-5.107
	l-2.326-14.519c-0.254-1.537,0.267-3.102,1.377-4.198L288.282,261.949z"/>
<g>
	<path style="fill:#50000F;" d="M342.119,0H169.88C78.62,0,4.374,74.246,4.374,165.506v222.85C4.374,456.534,59.841,512,128.018,512
		c0.275,0,0.549-0.011,0.824-0.033l5.239-0.432c80.899-6.658,162.938-6.658,243.838,0l5.241,0.432
		c0.273,0.023,0.548,0.033,0.822,0.033c68.177,0,123.644-55.466,123.644-123.644v-222.85C507.626,74.246,433.38,0,342.119,0z
		 M24.428,165.506c0-80.203,65.25-145.452,145.452-145.452h172.238c80.203,0,145.454,65.25,145.454,145.452v46.219
		c0,78.661-63.996,142.657-142.657,142.657H167.083c-78.661,0-142.657-63.996-142.657-142.657v-46.219L24.428,165.506
		L24.428,165.506z M487.572,388.356c0,56.988-46.251,103.375-103.189,103.59l-4.819-0.397c-40.996-3.374-82.279-5.061-123.564-5.061
		s-82.569,1.687-123.566,5.061l-4.819,0.397c-56.933-0.221-103.188-46.605-103.188-103.59v-98.447
		c27.698,50.337,81.256,84.526,142.657,84.526h177.832c61.399,0,114.959-34.19,142.657-84.526v98.447H487.572z"/>
	<path style="fill:#50000F;" d="M384.804,441.393l-5.241-0.432c-81.992-6.749-165.136-6.749-247.13,0l-5.239,0.432
		c-5.519,0.455-9.624,5.297-9.17,10.815c0.432,5.239,4.817,9.204,9.981,9.204c0.275,0,0.555-0.012,0.834-0.035l5.239-0.432
		c80.902-6.658,162.939-6.658,243.838,0l5.241,0.432c5.521,0.461,10.361-3.651,10.815-9.17
		C394.428,446.69,390.323,441.848,384.804,441.393z"/>
	<path style="fill:#50000F;" d="M255.622,110.485c19.734,0,35.789-12.801,35.789-28.535s-16.055-28.535-35.789-28.535
		s-35.787,12.801-35.787,28.535S235.888,110.485,255.622,110.485z"/>
	<path style="fill:#50000F;" d="M186.272,297.071c12.62,28.747,40.843,45.904,70.397,45.904c10.289,0,20.739-2.08,30.749-6.475
		c18.775-8.242,33.216-23.302,40.664-42.405c7.447-19.104,7.009-39.965-1.234-58.739c-8.242-18.774-23.302-33.216-42.406-40.663
		c-19.1-7.448-39.962-7.011-58.738,1.233C186.947,212.94,169.257,258.313,186.272,297.071L186.272,297.071z M233.765,214.288
		c13.869-6.09,29.281-6.412,43.393-0.91c14.114,5.503,25.239,16.171,31.329,30.041c6.09,13.87,6.413,29.281,0.912,43.393
		c-5.503,14.114-16.171,25.239-30.041,31.329c-13.873,6.09-29.282,6.41-43.394,0.91c-14.114-5.503-25.239-16.171-31.329-30.041l0,0
		C192.064,260.377,205.133,226.857,233.765,214.288z"/>
</g>
</svg>